<?xml version="1.0" encoding="iso-8859-1"?>
<svg xmlns="http://www.w3.org/2000/svg" xmlns:xlink="http://www.w3.org/1999/xlink" x="0px" y="0px"
	 viewBox="0 0 496 496" style="enable-background:new 0 0 496 496;" xml:space="preserve">
<rect x="320" y="352" style="fill:#FFA64D;" width="160" height="144"/>
<g>
	<path style="fill:#3F3A34;" d="M480,304h-48V32c0-17.648-14.352-32-32-32s-32,14.352-32,32v108.688L240.968,13.656
		C232.288,4.976,220.272,0,208,0s-24.288,4.976-32.968,13.656L136,52.688V16c0-8.824-7.176-16-16-16H40c-8.824,0-16,7.176-16,16
		v148.68l-13.384,13.384C3.776,184.92,0,194.072,0,204.256c0,15.552,10.072,28.672,24,33.576V296v48v56c0,8.824,7.176,16,16,16h280
		v-16H200v-56c8.824,0,16-7.176,16-16v-16c0-8.824-7.176-16-16-16H40v-56.312c8.128-0.728,15.704-4.08,21.544-9.928l111.144-111.144
		C182.12,109.192,194.664,104,208,104s25.88,5.192,35.312,14.624l110.752,110.752c3.968,3.968,8.728,6.832,13.936,8.608V304h-48
		c-8.824,0-16,7.176-16,16v16c0,8.824,7.176,16,16,16h160c8.824,0,16-7.176,16-16v-16C496,311.176,488.824,304,480,304z M40,344h16
		v56H40V344z M152,344v56h-16v-56H152z M120,400h-16v-56h16V400z M88,400H72v-56h16V400z M184,400h-16v-56h16V400z M200,312
		l0.016,16H40v-16H200z M264,59.312l32,32v57.376l-32-32V59.312z M312,107.312l32,32v57.376l-32-32V107.312z M152,116.688l-32,32
		V91.312l32-32V116.688z M104,107.312v57.376l-32,32v-57.376L104,107.312z M40,112h16V96H40V80h16V64H40V48h32V32H40V16h80v48H72v16
		h36.688L40,148.68V112z M36.84,224h-0.992C24.904,224,16,215.144,16,203.816c0-5.48,2.112-10.6,5.936-14.44L56,155.312v57.376
		l-5.768,5.768C46.656,222.032,41.896,224,36.84,224z M168,101.592v-58.28l18.344-18.344c3.776-3.776,8.552-6.352,13.656-7.752
		v71.32C188.304,89.944,177.336,94.432,168,101.592z M216,88.536v-71.32c5.104,1.4,9.88,3.976,13.656,7.752L248,43.312v58.28
		C238.664,94.432,227.696,89.944,216,88.536z M365.376,218.064L360,212.688v-57.376l8,8v56.96
		C367.072,219.616,366.192,218.88,365.376,218.064z M384,32c0-8.824,7.176-16,16-16s16,7.176,16,16v272h-32V32z M480,336H320
		l-0.008-16H320h48h64h48V336z"/>
	<rect x="360" y="392" style="fill:#3F3A34;" width="16" height="104"/>
	<rect x="424" y="392" style="fill:#3F3A34;" width="16" height="16"/>
	<rect x="424" y="424" style="fill:#3F3A34;" width="16" height="72"/>
	<path style="fill:#3F3A34;" d="M144,216c0,35.288,28.712,64,64,64s64-28.712,64-64s-28.712-64-64-64S144,180.712,144,216z
		 M200,168.72V208h-39.28C164.112,187.944,179.944,172.112,200,168.72z M160.72,224H200v39.28
		C179.944,259.888,164.112,244.056,160.72,224z M216,263.28V224h39.28C251.888,244.056,236.056,259.888,216,263.28z M255.28,208H216
		v-39.28C236.056,172.112,251.888,187.944,255.28,208z"/>
	<rect x="88" y="32" style="fill:#3F3A34;" width="16" height="16"/>
</g>
</svg>
