<?xml version="1.0" encoding="iso-8859-1"?>
<!-- Generator: Adobe Illustrator 19.0.0, SVG Export Plug-In . SVG Version: 6.00 Build 0)  -->
<svg version="1.1" id="Layer_1" xmlns="http://www.w3.org/2000/svg" xmlns:xlink="http://www.w3.org/1999/xlink" x="0px" y="0px"
	 viewBox="0 0 512 512" style="enable-background:new 0 0 512 512;" xml:space="preserve">
<g>
	<g>
		<rect x="110.759" width="290.482" height="15.673"/>
	</g>
</g>
<g>
	<g>
		<polygon points="122.253,22.465 122.253,38.139 137.142,38.139 137.142,117.812 152.816,117.812 152.816,38.139 248.163,38.139 
			248.163,258.09 263.836,258.09 263.836,38.139 359.183,38.139 359.183,258.09 374.857,258.09 374.857,38.139 389.746,38.139 
			389.746,22.465 		"/>
	</g>
</g>
<g>
	<g>
		<path d="M411.864,457.606v-63.027c8.945-3.221,15.36-11.79,15.36-21.831s-6.415-18.611-15.36-21.831V303.02H396.19v47.896
			c-8.945,3.221-15.36,11.79-15.36,21.831s6.415,18.611,15.36,21.831v63.027h-58.34v-63.027c8.945-3.221,15.36-11.79,15.36-21.831
			c0-10.041-6.415-18.611-15.36-21.831V287.89h97.349v-15.672h-358.4v15.674h23.336v63.026c-8.945,3.221-15.36,11.79-15.36,21.831
			c0,10.041,6.415,18.611,15.36,21.831v63.027H76.799v7.837c0,25.671,20.885,46.556,46.558,46.556h265.286
			c25.672,0,46.557-20.885,46.557-46.558v-7.837H411.864z M404.026,365.224c4.148,0,7.523,3.375,7.523,7.523
			s-3.375,7.523-7.523,7.523s-7.523-3.375-7.523-7.523C396.504,368.6,399.879,365.224,404.026,365.224z M330.013,365.224
			c4.148,0,7.523,3.376,7.523,7.523c0,4.148-3.375,7.523-7.523,7.523s-7.523-3.375-7.523-7.523S325.864,365.224,330.013,365.224z
			 M263.836,394.579c8.945-3.221,15.36-11.79,15.36-21.831c0-10.041-6.415-18.611-15.36-21.831V287.89h58.34v63.026
			c-8.945,3.221-15.36,11.79-15.36,21.831s6.415,18.611,15.36,21.831v63.027h-58.34V394.579z M255.999,365.224
			c4.148,0,7.523,3.375,7.523,7.523s-3.375,7.523-7.523,7.523c-4.148,0.001-7.523-3.375-7.523-7.523
			S251.851,365.224,255.999,365.224z M189.822,394.579c8.945-3.221,15.36-11.79,15.36-21.831c0-10.041-6.415-18.611-15.36-21.831
			V287.89h58.341v63.026c-8.945,3.221-15.36,11.79-15.36,21.831s6.415,18.611,15.36,21.831v63.027h-58.341V394.579z
			 M181.986,365.224c4.148,0,7.523,3.376,7.523,7.523c0,4.148-3.375,7.523-7.523,7.523s-7.523-3.375-7.523-7.523
			S177.838,365.224,181.986,365.224z M115.809,394.58c8.945-3.221,15.36-11.79,15.36-21.831c0-10.041-6.415-18.611-15.36-21.831
			v-63.026h58.34v63.026c-8.945,3.221-15.36,11.79-15.36,21.831c0,10.041,6.415,18.611,15.36,21.831v63.027h-58.34V394.58z
			 M107.972,365.224c4.148,0,7.523,3.375,7.523,7.523s-3.375,7.523-7.523,7.523c-4.148,0.001-7.523-3.375-7.523-7.523
			S103.824,365.224,107.972,365.224z M388.642,496.327H123.357c-14.323,0-26.399-9.8-29.877-23.047h325.038
			C415.041,486.526,402.965,496.327,388.642,496.327z"/>
	</g>
</g>
<g>
	<g>
		<rect x="137.142" y="136.098" width="15.673" height="15.673"/>
	</g>
</g>
<g>
	<g>
		<rect x="137.142" y="170.58" width="15.673" height="87.51"/>
	</g>
</g>
<g>
	<g>
		
			<rect x="158.241" y="122.459" transform="matrix(0.5736 -0.8192 0.8192 0.5736 -24.7723 213.0062)" width="67.922" height="15.674"/>
	</g>
</g>
<g>
	<g>
		
			<rect x="173.305" y="150.271" transform="matrix(0.5736 -0.8192 0.8192 0.5736 -41.1306 237.2055)" width="67.922" height="15.674"/>
	</g>
</g>
<g>
	<g>
		
			<rect x="270.758" y="122.452" transform="matrix(0.5736 -0.8192 0.8192 0.5736 23.2141 305.1723)" width="67.922" height="15.674"/>
	</g>
</g>
<g>
	<g>
		
			<rect x="285.849" y="150.278" transform="matrix(0.5736 -0.8192 0.8192 0.5736 6.8557 329.3994)" width="67.922" height="15.674"/>
	</g>
</g>
<g>
</g>
<g>
</g>
<g>
</g>
<g>
</g>
<g>
</g>
<g>
</g>
<g>
</g>
<g>
</g>
<g>
</g>
<g>
</g>
<g>
</g>
<g>
</g>
<g>
</g>
<g>
</g>
<g>
</g>
</svg>
