<?xml version="1.0" encoding="iso-8859-1"?>
<!-- Generator: Adobe Illustrator 19.0.0, SVG Export Plug-In . SVG Version: 6.00 Build 0)  -->
<svg version="1.1" id="Layer_1" xmlns="http://www.w3.org/2000/svg" xmlns:xlink="http://www.w3.org/1999/xlink" x="0px" y="0px"
	 viewBox="0 0 463 463" style="enable-background:new 0 0 463 463;" xml:space="preserve">
<g transform="translate(0 -540.36)">
	<g>
		<g>
			<circle cx="397" cy="691.959" r="7.5"/>
			<path d="M397,724.461c17.9,0,32.5-14.6,32.5-32.5s-14.6-32.5-32.5-32.5c-17.9,0-32.5,14.6-32.5,32.5S379.1,724.461,397,724.461z
				 M397,674.461c9.7,0,17.5,7.9,17.5,17.5s-7.9,17.5-17.5,17.5c-9.6,0-17.5-7.9-17.5-17.5S387.4,674.461,397,674.461z"/>
			<path d="M0,608.361v301.6h463v0v-301.6H0z M448,894.961H15v0v-271.6h433V894.961z"/>
			<path d="M39.9,877.061h282.4c4.2,0,7.5-3.4,7.6-7.5v-220.7c0-4.1-3.4-7.5-7.5-7.5H39.9c-4.1,0-7.5,3.4-7.5,7.5v220.7
				C32.4,873.661,35.8,877.061,39.9,877.061z M47.4,656.361h267.5v205.7H47.4V656.361z"/>
			<rect x="65.4" y="920.359" width="67.2" height="15"/>
			<rect x="331.7" y="920.359" width="66" height="15"/>
			<rect x="363.4" y="760.559" width="67.2" height="15"/>
			<rect x="363.4" y="793.559" width="67.2" height="15"/>
		</g>
	</g>
</g>
<g>
</g>
<g>
</g>
<g>
</g>
<g>
</g>
<g>
</g>
<g>
</g>
<g>
</g>
<g>
</g>
<g>
</g>
<g>
</g>
<g>
</g>
<g>
</g>
<g>
</g>
<g>
</g>
<g>
</g>
</svg>
