<?xml version="1.0" encoding="iso-8859-1"?>
<!-- Generator: Adobe Illustrator 17.1.0, SVG Export Plug-In . SVG Version: 6.00 Build 0)  -->
<!DOCTYPE svg PUBLIC "-//W3C//DTD SVG 1.1//EN" "http://www.w3.org/Graphics/SVG/1.1/DTD/svg11.dtd">
<svg version="1.1" id="Capa_1" xmlns="http://www.w3.org/2000/svg" xmlns:xlink="http://www.w3.org/1999/xlink" x="0px" y="0px"
	 viewBox="0 0 470 470" style="enable-background:new 0 0 470 470;" xml:space="preserve">
<g>
	<path d="M162.182,95.318c1.464,1.465,3.384,2.197,5.303,2.197c1.919,0,3.839-0.732,5.303-2.197l5.954-5.954l5.954,5.954
		c1.464,1.464,3.384,2.197,5.303,2.197s3.839-0.732,5.303-2.197c2.929-2.929,2.929-7.678,0-10.606l-5.954-5.954l5.954-5.954
		c2.929-2.929,2.929-7.678,0-10.606c-2.928-2.929-7.677-2.929-10.606,0l-5.954,5.954l-5.954-5.954
		c-2.929-2.929-7.678-2.929-10.606,0c-2.929,2.929-2.929,7.678,0,10.606l5.954,5.954l-5.954,5.954
		C159.252,87.64,159.252,92.389,162.182,95.318z"/>
	<path d="M461.582,409.731H447.19V7.5c0-4.142-3.358-7.5-7.5-7.5H30.31c-4.142,0-7.5,3.358-7.5,7.5v402.231H8.418
		c-4.142,0-7.5,3.358-7.5,7.5V462.5c0,4.142,3.358,7.5,7.5,7.5h453.164c4.142,0,7.5-3.358,7.5-7.5v-45.269
		C469.082,413.089,465.724,409.731,461.582,409.731z M37.81,15h394.38v394.731H37.81V15z M454.082,455H15.918v-30.269h438.164V455z"
		/>
	<path d="M409.69,30h-30c-4.142,0-7.5,3.358-7.5,7.5s3.358,7.5,7.5,7.5h22.5v334.732H257.5V45h92.19c4.142,0,7.5-3.358,7.5-7.5
		s-3.358-7.5-7.5-7.5H250c-4.142,0-7.5,3.358-7.5,7.5v349.732c0,4.142,3.358,7.5,7.5,7.5h159.69c4.142,0,7.5-3.358,7.5-7.5V37.5
		C417.19,33.358,413.832,30,409.69,30z"/>
	<path d="M387.189,192.339c0-4.411-3.589-8-8-8s-8,3.589-8,8s3.589,8,8,8S387.189,196.75,387.189,192.339z"/>
	<path d="M324.525,100.839c4.411,0,8-3.589,8-8s-3.589-8-8-8s-8,3.589-8,8S320.114,100.839,324.525,100.839z"/>
	<path d="M309.525,281.839c4.411,0,8-3.589,8-8s-3.589-8-8-8s-8,3.589-8,8S305.114,281.839,309.525,281.839z"/>
	<path d="M352.525,312.839c0-4.411-3.589-8-8-8s-8,3.589-8,8s3.589,8,8,8S352.525,317.25,352.525,312.839z"/>
	<path d="M140.155,114.839c-4.411,0-8,3.589-8,8s3.589,8,8,8s8-3.589,8-8S144.566,114.839,140.155,114.839z"/>
	<path d="M114.525,294.839c-4.411,0-8,3.589-8,8s3.589,8,8,8s8-3.589,8-8S118.937,294.839,114.525,294.839z"/>
	<path d="M339.525,364.732c4.411,0,8-3.589,8-8s-3.589-8-8-8s-8,3.589-8,8S335.114,364.732,339.525,364.732z"/>
	<path d="M323.891,249.733l5.954-5.954l5.954,5.954c1.464,1.464,3.384,2.197,5.303,2.197s3.839-0.732,5.303-2.197
		c2.929-2.929,2.929-7.678,0-10.606l-5.954-5.954l5.954-5.954c2.929-2.929,2.929-7.678,0-10.606c-2.929-2.929-7.678-2.929-10.606,0
		l-5.954,5.954l-5.954-5.954c-2.929-2.929-7.678-2.929-10.606,0c-2.929,2.929-2.929,7.678,0,10.606l5.954,5.954l-5.954,5.954
		c-2.929,2.929-2.929,7.678,0,10.606c1.464,1.464,3.384,2.197,5.303,2.197S322.426,251.198,323.891,249.733z"/>
	<path d="M274.697,169.733c1.464,1.465,3.384,2.197,5.303,2.197c1.919,0,3.839-0.732,5.303-2.197l5.954-5.954l5.954,5.954
		c1.464,1.464,3.384,2.197,5.303,2.197s3.839-0.732,5.303-2.197c2.929-2.929,2.929-7.678,0-10.606l-5.954-5.954l5.954-5.954
		c2.929-2.929,2.929-7.678,0-10.606c-2.928-2.929-7.677-2.929-10.606,0l-5.954,5.954l-5.954-5.954
		c-2.929-2.929-7.678-2.929-10.606,0c-2.929,2.929-2.929,7.678,0,10.606l5.954,5.954l-5.954,5.954
		C271.768,162.056,271.768,166.805,274.697,169.733z"/>
	<path d="M220,30H60.31c-4.142,0-7.5,3.358-7.5,7.5v279.964c0,4.142,3.358,7.5,7.5,7.5s7.5-3.358,7.5-7.5V45H212.5v334.732H67.81
		v-32.268c0-4.142-3.358-7.5-7.5-7.5s-7.5,3.358-7.5,7.5v39.768c0,4.142,3.358,7.5,7.5,7.5H220c4.142,0,7.5-3.358,7.5-7.5V37.5
		C227.5,33.358,224.142,30,220,30z"/>
	<path d="M85.007,199.733c1.464,1.465,3.384,2.197,5.303,2.197c1.919,0,3.839-0.732,5.303-2.197l5.954-5.954l5.954,5.954
		c1.464,1.464,3.384,2.197,5.303,2.197s3.839-0.732,5.303-2.197c2.929-2.929,2.929-7.678,0-10.606l-5.954-5.954l5.954-5.954
		c2.929-2.929,2.929-7.678,0-10.606c-2.928-2.929-7.677-2.929-10.606,0l-5.954,5.954l-5.954-5.954
		c-2.929-2.929-7.678-2.929-10.606,0c-2.929,2.929-2.929,7.678,0,10.606l5.954,5.954l-5.954,5.954
		C82.078,192.056,82.078,196.805,85.007,199.733z"/>
	<path d="M151.412,232.566l-5.954-5.954c-2.929-2.929-7.678-2.929-10.606,0c-2.929,2.929-2.929,7.678,0,10.606l5.954,5.954
		l-5.954,5.954c-2.929,2.929-2.929,7.678,0,10.606c1.464,1.464,3.384,2.197,5.303,2.197s3.839-0.732,5.303-2.197l5.954-5.954
		l5.954,5.954c1.464,1.464,3.384,2.197,5.303,2.197s3.839-0.732,5.303-2.197c2.929-2.929,2.929-7.678,0-10.606l-5.954-5.954
		l5.954-5.954c2.929-2.929,2.929-7.678,0-10.606c-2.929-2.929-7.678-2.929-10.606,0L151.412,232.566z"/>
</g>
<g>
</g>
<g>
</g>
<g>
</g>
<g>
</g>
<g>
</g>
<g>
</g>
<g>
</g>
<g>
</g>
<g>
</g>
<g>
</g>
<g>
</g>
<g>
</g>
<g>
</g>
<g>
</g>
<g>
</g>
</svg>
