<svg version="1.1" xmlns="http://www.w3.org/2000/svg" xmlns:xlink="http://www.w3.org/1999/xlink" x="0px" y="0px"
	 viewBox="0 0 86 51.9" style="enable-background:new 0 0 86 51.9;" xml:space="preserve">
<style type="text/css">
	.st0{fill:#030303;}
</style>
<path class="st0" d="M86,36.7c-0.6-4.4-3.7-7.6-7.3-7.2h-1.3c0.1-0.4,0.2-0.9,0.3-1.4c0-0.1,0-0.1,0-0.2v-6.6c0,0,0-0.1,0-0.2
	c-0.2-2.1-1.1-3.9-2.5-5.1c-1.1-0.9-2.4-1.3-3.8-1.2h-3.5c2.4-1.5,3.7-3.3,3.7-5.4c0-5.9-9.9-9.4-26.4-9.4C28.4,0,18.8,3.4,18.8,9.4
	c0,2.1,1.3,4,3.7,5.4h-7.2c-1.1-0.1-2.2,0.2-3.2,0.9c-1.3,1-2.1,2.6-2.3,4.5c0,0.1,0,0.2,0,0.4c0.1,1.4,0.6,2.6,1.3,3.5
	c-0.7,0.9-1.2,2.2-1.3,3.5c0,0.1,0,0.2,0,0.4c0,0.5,0.1,0.9,0.3,1.4H6.2c-1.3-0.1-2.6,0.3-3.6,1.1c-1.5,1.2-2.5,3.2-2.6,5.4
	c0,0.1,0,0.2,0,0.3c0.1,1.6,0.7,3.2,1.7,4.4C0.8,41.8,0.2,43.3,0,45c0,0.1,0,0.2,0,0.3c0.2,2.2,1.1,4.2,2.6,5.4
	C3.7,51.6,5,52,6.2,51.8h73.4c0.2,0,0.3,0,0.5,0c1.1,0,2.2-0.4,3.2-1.2c1.5-1.2,2.5-3.2,2.6-5.4c0,0,0-0.1,0-0.2v-8.2
	C86,36.9,86,36.8,86,36.7z M45.3,4.1c16.9,0,22.4,3.6,22.4,5.4s-5.4,5.4-22.4,5.4c-16.9,0-22.4-3.7-22.4-5.4S28.4,4.1,45.3,4.1z
	 M69.1,22.4H15.5c-0.1,0-0.2,0-0.3,0c-0.4-0.1-1-0.8-1.1-1.8c0.1-0.8,0.5-1.3,0.7-1.5C14.9,19,15,19,15,19c0.1,0,0.2,0,0.3,0h56.3
	c0.1,0,0.2,0,0.3,0c0.3,0,0.6,0.1,0.9,0.3c0.5,0.4,0.9,1.3,1,2.2v6.4c-0.1,0.8-0.5,1.4-0.7,1.6L73,29.6h-0.5H14.9c0,0-0.1,0-0.1-0.1
	c-0.3-0.2-0.6-0.7-0.7-1.5c0.1-0.8,0.5-1.3,0.7-1.5c0.1-0.1,0.1-0.1,0.2-0.1c0.1,0,0.3,0,0.4,0h53.8c1.1,0,2-0.9,2-2
	S70.3,22.4,69.1,22.4z M82,45.2c-0.1,1-0.5,2-1.1,2.5c-0.3,0.2-0.5,0.3-0.7,0.3c-0.1,0-0.2,0-0.3,0H6.2c-0.1,0-0.2,0-0.3,0
	c-0.2,0-0.5-0.1-0.7-0.3c-0.6-0.5-1-1.4-1.1-2.4c0.1-1,0.5-1.9,1.1-2.4c0.4,0.1,0.7,0.1,1.1,0h69.4c1.1,0,2-0.9,2-2s-0.9-2-2-2
	L6.3,38.6c-0.4,0-0.7,0-1.1,0c-0.6-0.5-1-1.4-1.1-2.4c0.1-1,0.5-1.9,1.1-2.4c0.3-0.2,0.5-0.3,0.7-0.3c0.1,0,0.2,0,0.3,0h8.2
	c0.3,0,0.7,0,1,0h56.9c0.3,0,0.7,0,1,0h5.6c0.1,0,0.1,0,0.2,0c1.3-0.1,2.6,1.5,3,3.6L82,45.2L82,45.2z"/>
</svg>
