<?xml version="1.0" encoding="iso-8859-1"?>
<!-- Generator: Adobe Illustrator 19.0.0, SVG Export Plug-In . SVG Version: 6.00 Build 0)  -->
<svg version="1.1" id="Layer_1" xmlns="http://www.w3.org/2000/svg" xmlns:xlink="http://www.w3.org/1999/xlink" x="0px" y="0px"
	 viewBox="0 0 512 512" style="enable-background:new 0 0 512 512;" xml:space="preserve">
<g>
	<g>
		<g>
			<path d="M228.88,27.131H51.374c-3.864,0-6.998,3.134-6.998,6.998V273.16c-4.428-2.71-9.63-4.276-15.191-4.276
				C13.093,268.885,0,281.977,0,298.071c0,16.094,13.093,29.186,29.185,29.186h6.478c-9.607,11.153-14.893,25.32-14.893,40.078
				c0,3.864,3.134,6.998,6.998,6.998s6.998-3.134,6.998-6.998c0-10.39,3.389-20.406,9.61-28.621v139.157
				c0,3.864,3.134,6.998,6.998,6.998h108.895c3.865,0,6.998-3.134,6.998-6.998v-75.995c0-29.733-11.449-58.225-31.722-79.649
				c61.277-31.444,100.333-94.819,100.333-164.212V34.129C235.878,30.263,232.745,27.131,228.88,27.131z M44.376,313.262H29.185
				c-8.375,0-15.19-6.815-15.19-15.191s6.815-15.191,15.19-15.191c8.376,0,15.191,6.815,15.191,15.191V313.262z M153.271,401.875
				v68.998h-40.846v-43.136c0-3.864-3.134-6.998-6.998-6.998c-3.864,0-6.998,3.134-6.998,6.998v43.136H85.306v-61.625
				c0-3.864-3.134-6.998-6.998-6.998c-3.864,0-6.998,3.134-6.998,6.998v61.625H58.372V327.257h62.378
				C141.45,346.504,153.271,373.55,153.271,401.875z M221.883,158.014c0,66.826-39.204,127.594-99.985,155.248H58.372v-15.191
				V41.126H71.31v71.897c0,3.864,3.134,6.998,6.998,6.998c3.864,0,6.998-3.134,6.998-6.998V41.126h56.268v60.802
				c0,3.864,3.134,6.998,6.998,6.998s6.998-3.134,6.998-6.998V41.126h15.589v106.412c0,3.864,3.134,6.998,6.998,6.998
				c3.864,0,6.998-3.134,6.998-6.998V41.126h36.73V158.014z"/>
			<path d="M512,298.071c0-16.094-13.093-29.186-29.186-29.186c-5.561,0-10.763,1.565-15.191,4.276V34.129
				c0-3.864-3.134-6.998-6.998-6.998H283.119c-3.864,0-6.998,3.134-6.998,6.998v123.885c0,69.394,39.057,132.768,100.333,164.212
				c-20.272,21.425-31.722,49.916-31.722,79.649v75.995c0,3.864,3.134,6.998,6.998,6.998h108.895c3.864,0,6.998-3.134,6.998-6.998
				V338.714c6.221,8.215,9.61,18.23,9.61,28.622c0,3.864,3.134,6.998,6.998,6.998s6.998-3.134,6.998-6.998
				c0-14.758-5.287-28.925-14.893-40.078h6.478C498.907,327.257,512,314.165,512,298.071z M290.116,158.014V41.126h36.73v106.412
				c0,3.864,3.134,6.998,6.998,6.998s6.998-3.134,6.998-6.998V41.126h15.589v60.802c0,3.864,3.134,6.998,6.998,6.998
				s6.998-3.134,6.998-6.998V41.126h56.268v71.897c0,3.864,3.134,6.998,6.998,6.998c3.864,0,6.998-3.134,6.998-6.998V41.126h12.939
				v256.945v15.191h-63.526C329.321,285.607,290.116,224.839,290.116,158.014z M453.628,470.873h-12.94v-61.625
				c0-3.864-3.134-6.998-6.998-6.998c-3.864,0-6.998,3.134-6.998,6.998v61.625H413.57v-43.136c0-3.864-3.134-6.998-6.998-6.998
				s-6.998,3.134-6.998,6.998v43.136h-40.847v-68.998c0-28.326,11.821-55.371,32.523-74.618h62.378V470.873z M467.623,313.262
				v-15.191c0-8.376,6.815-15.191,15.191-15.191s15.191,6.815,15.191,15.191s-6.815,15.191-15.191,15.191H467.623z"/>
		</g>
	</g>
</g>
<g>
</g>
<g>
</g>
<g>
</g>
<g>
</g>
<g>
</g>
<g>
</g>
<g>
</g>
<g>
</g>
<g>
</g>
<g>
</g>
<g>
</g>
<g>
</g>
<g>
</g>
<g>
</g>
<g>
</g>
</svg>
