<svg width='200' height='200' fill="#000000" xmlns="http://www.w3.org/2000/svg" xmlns:xlink="http://www.w3.org/1999/xlink" version="1.1" x="0px" y="0px" viewBox="0 0 90 90" enable-background="new 0 0 90 90" xml:space="preserve"><g><g><path d="M74,54.5H5.3c-0.7,0-1.3-0.6-1.3-1.3s0.6-1.3,1.3-1.3H74c0.7,0,1.3,0.6,1.3,1.3S74.7,54.5,74,54.5z"/><path d="M80.6,8.7c-17.8-1.3-31.4,1.6-41.8,6.5l-2.3-4l-10.1,5.6l2.3,4.2l0.3-0.2C14.6,31,8.6,44.7,6.1,50.1h68.4    c0-2.6,6.4-7.5,15.4-7.5L80.6,8.7z M63.4,37H40.5c-6.1,0-3.9-4.6-2-6.7c2-2.2,13.5-10.2,32.4-8.5l1.7,7.8L63.4,37z M77.3,39.6    c-1.7,0-3-1.4-3-3s1.4-3,3-3c1.7,0,3,1.4,3,3S79,39.6,77.3,39.6z"/><path d="M40.6,83.8c-6.9,0-14-2.9-17.4-7.1c-4.4,2.4-8.5,2.8-12.3,1.3c-6.5-2.7-10-10.5-11-14.3c-0.2-0.7,0.3-1.4,0.9-1.6    c0.7-0.2,1.4,0.3,1.6,0.9c1,3.9,4.3,10.4,9.4,12.5c3.3,1.3,7,0.8,10.9-1.7l1.1-0.7l0.7,1c2.6,4,9.5,7,16,7c6.5,0,13.4-3,16-7    l0.7-1l1.1,0.7c4,2.5,7.7,3,10.9,1.7c5.1-2.1,8.5-8.6,9.4-12.5c0.2-0.7,0.9-1.1,1.6-0.9c0.7,0.2,1.1,0.9,0.9,1.6    c-0.9,3.8-4.5,11.6-11,14.3c-3.8,1.5-7.9,1.1-12.3-1.3C54.6,80.8,47.5,83.8,40.6,83.8z"/><path d="M14.9,70.4c-0.2,0-0.4,0-0.5-0.1c-0.7-0.3-0.9-1.1-0.6-1.7L18,59c0.3-0.7,1.1-0.9,1.7-0.6c0.7,0.3,0.9,1.1,0.6,1.7    l-4.3,9.6C15.9,70.1,15.4,70.4,14.9,70.4z"/><path d="M65.3,70.4c-0.5,0-1-0.3-1.2-0.8L59.8,60c-0.3-0.7,0-1.4,0.6-1.7c0.7-0.3,1.4,0,1.7,0.6l4.3,9.6c0.3,0.7,0,1.4-0.6,1.7    C65.7,70.3,65.5,70.4,65.3,70.4z"/><path d="M39.9,73.8c-0.7,0-1.3-0.6-1.3-1.3V61.7c0-0.7,0.6-1.3,1.3-1.3s1.3,0.6,1.3,1.3v10.9C41.2,73.3,40.6,73.8,39.9,73.8z"/></g></g></svg>